HIERARCHY
ROOT hip
{
	OFFSET 0.000000 0.000000 0.000000 
	CHANNELS 6 Xposition Yposition Zposition Xrotation Zrotation Yrotation
	JOINT abdomen
	{
		OFFSET 0.000000 3.402643 0.000000 
		CHANNELS 3 Xrotation Zrotation Yrotation
		JOINT chest
		{
			OFFSET 0.000000 8.438565 -0.680529 
			CHANNELS 3 Xrotation Zrotation Yrotation
			JOINT neck
			{
				OFFSET 0.000000 10.207942 -0.272212 
				CHANNELS 3 Xrotation Zrotation Yrotation
				JOINT head
				{
					OFFSET 0.000000 3.130431 0.000000 
					CHANNELS 3 Xrotation Zrotation Yrotation
					End Site
					{
						OFFSET 0.000000 3.130435 0.000000 
					}
				}
			}
			JOINT lCollar
			{
				OFFSET 3.470700 6.669187 -0.816635 
				CHANNELS 3 Yrotation Zrotation Xrotation
				JOINT lShldr
				{
					OFFSET 3.198488 0.000000 0.000000 
					CHANNELS 3 Zrotation Yrotation Xrotation
					JOINT lForeArm
					{
						OFFSET 10.139888 0.000000 0.000000 
						CHANNELS 3 Yrotation Zrotation Xrotation
						JOINT lHand
						{
							OFFSET 8.370511 0.000000 0.000000 
							CHANNELS 3 Zrotation Yrotation Xrotation
							End Site
							{
								OFFSET 4.083176 0.000000 0.000000 
							}
						}
					}
				}
			}
			JOINT rCollar
			{
				OFFSET -3.470700 6.669187 -0.816635 
				CHANNELS 3 Yrotation Zrotation Xrotation
				JOINT rShldr
				{
					OFFSET -3.198488 0.000000 0.000000 
					CHANNELS 3 Zrotation Yrotation Xrotation
					JOINT rForeArm
					{
						OFFSET -10.139888 0.000000 0.000000 
						CHANNELS 3 Yrotation Zrotation Xrotation
						JOINT rHand
						{
							OFFSET -8.370511 0.000000 0.000000 
							CHANNELS 3 Zrotation Yrotation Xrotation
							End Site
							{
								OFFSET -4.083176 0.000000 0.000000 
							}
						}
					}
				}
			}
		}
	}
	JOINT lThigh
	{
		OFFSET 5.308129 -1.633274 1.361059 
		CHANNELS 3 Xrotation Zrotation Yrotation
		JOINT lShin
		{
			OFFSET -2.041588 -20.007561 0.000000 
			CHANNELS 3 Xrotation Zrotation Yrotation
			JOINT lFoot
			{
				OFFSET 0.000000 -19.190928 -1.224953 
				CHANNELS 3 Xrotation Yrotation Zrotation
				End Site
				{
					OFFSET 0.000000 -2.449906 4.627600 
				}
			}
		}
	}
	JOINT rThigh
	{
		OFFSET -5.308129 -1.633274 1.361059 
		CHANNELS 3 Xrotation Zrotation Yrotation
		JOINT rShin
		{
			OFFSET 2.041588 -20.007561 0.000000 
			CHANNELS 3 Xrotation Zrotation Yrotation
			JOINT rFoot
			{
				OFFSET 0.000000 -19.190928 -1.224953 
				CHANNELS 3 Xrotation Yrotation Zrotation
				End Site
				{
					OFFSET 0.000000 -2.449906 4.627600 
				}
			}
		}
	}
}
MOTION
Frames: 6
Frame Time: 0.016667
-0.788491 42.401230 0.162107 2.668710 -2.575330 -0.901567 -15.373200 -3.824760 -5.587240 16.245100 -2.716910 -3.086490 -0.144305 -11.695500 11.918500 6.298480 -0.443928 5.959850 2.000000 -2.000000 0.000000 103.750000 175.401993 -4.648860 77.500504 -0.244439 0.133525 0.065629 -0.058966 -158.483994 -2.000000 2.000000 0.000000 76.938499 -13.926000 150.087006 -92.451599 0.209418 0.117078 -0.117611 0.127620 170.382996 -26.924480 1.275587 6.716145 51.920746 1.467246 3.676751 -10.809141 -14.739655 -3.217432 -22.810535 11.545870 4.209134 40.886127 -1.851161 -3.156387 -18.389454 -2.272128 -0.097260 
-0.946862 42.641975 -0.194850 3.638310 -3.147950 0.395405 -15.679900 -3.532100 -6.166360 15.797800 -2.033990 -3.356210 -1.377380 -12.171600 12.246100 5.702190 -0.764984 6.062380 2.000000 -2.000000 0.000000 105.469002 177.957993 -3.832650 79.434097 -0.239919 0.134446 0.065730 -0.059221 -158.582001 -2.000000 2.000000 0.000000 76.646400 -14.386100 150.602997 -92.832497 0.208575 0.117039 -0.118462 0.138029 170.001999 -29.000803 1.937599 5.576042 53.551800 1.334500 3.774137 -10.001371 -16.609322 -3.317626 -23.367220 11.391068 2.111271 38.701828 -1.851032 -3.065780 -17.169979 -1.371373 0.181413 
-1.088597 42.993950 -0.528754 4.491070 -3.553540 1.342090 -15.736500 -3.130860 -6.399610 15.672600 -1.303840 -3.472610 -2.097200 -12.373700 12.363700 5.379650 -0.910877 6.082720 2.000000 -2.000000 0.000000 107.362999 -178.733002 -2.848760 81.953697 -0.233986 0.135418 0.065710 -0.059170 -158.561996 -2.000000 2.000000 0.000000 76.246498 -14.240400 151.014008 -92.695702 0.208878 0.117054 -0.119382 0.128950 169.591995 -29.752089 2.301953 5.303964 55.053974 1.225999 3.853180 -12.099561 -16.001747 -3.870208 -23.475988 11.215467 0.520581 35.976112 -1.882609 -2.938395 -15.613866 -0.340277 0.464714 
-1.190336 43.409851 -0.828871 5.226620 -3.841430 2.158120 -15.282000 -2.900570 -6.730900 16.132401 -0.788659 -3.640160 -1.475040 -12.422900 12.415400 5.858320 -0.853087 6.116060 2.000000 -2.000000 0.000000 110.115997 -172.854996 -2.717370 82.510300 -0.232670 0.135597 0.065251 -0.057999 -158.113007 -2.000000 2.000000 0.000000 76.498596 -11.876200 150.559998 -90.889099 0.212879 0.117179 -0.118527 0.128312 169.973007 -29.268364 2.467574 5.787496 57.192135 1.103236 3.945853 -14.538213 -12.382827 -3.675319 -23.190737 11.000977 -0.679550 32.905907 -1.904727 -2.765605 -13.573740 0.338104 0.592042 
-1.257210 43.785877 -1.153142 6.412690 -4.066280 2.716970 -15.680000 -2.739730 -6.995970 15.839800 -0.301709 -3.773930 -1.946770 -12.020700 12.600400 5.536110 -0.793990 6.210300 2.000000 -2.000000 0.000000 112.732002 -168.723007 -2.932250 83.272003 -0.230867 0.135822 0.064859 -0.056977 -157.722000 -2.000000 2.000000 0.000000 76.352501 -11.623100 150.970001 -90.127403 0.214567 0.117194 -0.118309 0.128148 170.070999 -28.449879 2.528732 6.691794 59.419025 0.955776 4.042429 -12.826459 -9.394381 -2.597612 -23.467485 10.773304 -1.686494 29.975866 -1.888110 -2.635585 -12.074223 1.021980 0.668720 
-1.296866 44.017365 -1.498593 7.972460 -4.361890 3.442000 -16.116400 -2.551650 -7.272530 15.634800 0.029189 -3.889230 -2.861730 -12.329200 12.856800 5.213430 -1.017990 6.278410 2.000000 -2.000000 0.000000 114.966003 -164.690002 -3.215860 83.691902 -0.229871 0.135936 0.063560 -0.053434 -156.375000 -2.000000 2.000000 0.000000 75.933296 -11.848900 151.496994 -90.508202 0.213723 0.117189 -0.119492 0.129031 169.542999 -27.451788 2.378451 7.413560 61.007835 0.845013 4.100070 -8.751643 -6.188468 -1.337171 -24.440163 10.487781 -2.979791 27.587114 -1.820883 -2.510363 -10.569451 2.203034 0.839067 
